<?xml version="1.0" encoding="UTF-8"?>
<!DOCTYPE svg PUBLIC "-//W3C//DTD SVG 1.1//EN" "http://www.w3.org/Graphics/SVG/1.1/DTD/svg11.dtd">
<!-- Creator: CorelDRAW 2017 -->
<svg xmlns="http://www.w3.org/2000/svg" xml:space="preserve" width="60px" height="60px" version="1.1" style="shape-rendering:geometricPrecision; text-rendering:geometricPrecision; image-rendering:optimizeQuality; fill-rule:evenodd; clip-rule:evenodd"
viewBox="0 0 11.862 11.858"
 xmlns:xlink="http://www.w3.org/1999/xlink">
 <defs>
  <style type="text/css">
   <![CDATA[
    .fil0 {fill:green}
   ]]>
  </style>
 </defs>
 <g id="Layer_x0020_1">
  <metadata id="CorelCorpID_0Corel-Layer"/>
  <g id="_2170673451632">
   <path class="fil0" d="M5.743 1.75c-0.686,-0.489 -0.15,-0.838 -1.914,-0.838 0.02,1.033 0.563,0.038 1.175,0.916 -0.421,0.31 -2.463,0.512 -3.572,2.67 -0.234,0.455 -0.364,1.334 -0.569,1.584 -0.248,0.303 -0.783,0.349 -0.863,1.059l0 0.372c0.078,0.649 0.581,0.713 0.867,1.027 0.305,0.335 0.368,1.479 1.785,2.403 2.208,1.44 5.834,1.213 7.538,-0.917 0.377,-0.47 0.556,-1.113 0.76,-1.394 0.342,-0.471 0.879,-0.286 0.911,-1.261 0.023,-0.681 -0.319,-1.099 -0.953,-1.215 -0.043,-0.55 -0.159,-1.099 -0.458,-1.514 -0.5,0.623 -0.078,1.261 -0.021,1.992 0.588,0.047 0.877,0.076 0.937,0.739 -0.138,0.514 -0.517,0.508 -0.835,0.72 -0.174,0.201 -0.27,1.484 -1.505,2.323 -1.753,1.192 -4.49,1.209 -6.124,0.037 -1.141,-0.819 -1.116,-1.22 -1.55,-2.399 -0.62,-0.228 -0.663,-0.028 -0.886,-0.814 0.372,-0.607 0.204,-0.557 0.954,-0.601 0.269,-3.425 3.552,-4.946 5.985,-4.032 0.545,0.204 0.556,0.41 0.993,-0.137 -0.511,-0.401 -1.433,-0.6 -2.177,-0.601 0.128,-1.436 1.071,-1.188 0.869,-1.825 -0.779,-0.292 -1.346,0.945 -1.347,1.706z"/>
   <path class="fil0" d="M8.474 3.066c0.396,0.476 0.227,0.092 0.718,0.318 -0.294,0.319 -0.722,0.872 -0.619,1.278 0.325,0.108 1.009,0.183 1.298,-0.002 0.524,-0.337 -0.422,-0.551 -0.518,-0.596 0.258,-0.28 0.667,-0.804 0.608,-1.149 -0.501,-0.294 -1.074,-0.367 -1.487,0.151z"/>
   <path class="fil0" d="M4.427 8.809c0.474,0.313 0.132,0.26 0.606,0.143 1.835,-0.456 2.243,0.53 2.354,-0.352 -0.702,-0.512 -2.431,-0.598 -2.96,0.209z"/>
   <path class="fil0" d="M10.44 1.77c0.071,0.471 0.039,0.216 0.427,0.417 -0.246,0.415 -0.506,0.64 -0.379,1.039l1.117 0.091c-0.016,-0.773 0.051,-0.213 -0.379,-0.73 0.329,-0.43 0.367,-0.384 0.379,-0.957 -0.416,0 -0.87,-0.09 -1.165,0.14z"/>
   <path class="fil0" d="M4.875 6.566c-0.626,0.099 -0.136,0.411 -1.057,0.458 -0.441,-0.36 -0.049,-0.364 -0.567,-0.468 -0.378,0.623 0.272,1.055 0.818,1.042 0.404,-0.01 1.206,-0.481 0.806,-1.032z"/>
   <path class="fil0" d="M6.832 6.79c0.553,1.11 1.381,0.971 1.823,0.366 0.3,-0.41 0.185,-0.331 -0.082,-0.6 -0.538,0.272 -0.193,0.413 -0.689,0.457 -0.55,0.05 -0.247,-0.197 -0.794,-0.457l-0.258 0.234z"/>
  </g>
 </g>
</svg>
