<?xml version="1.0" encoding="UTF-8"?>
<!DOCTYPE svg PUBLIC "-//W3C//DTD SVG 1.1//EN" "http://www.w3.org/Graphics/SVG/1.1/DTD/svg11.dtd">
<!-- Creator: CorelDRAW 2017 -->
<svg xmlns="http://www.w3.org/2000/svg" xml:space="preserve" width="53px" height="54px" version="1.1" style="shape-rendering:geometricPrecision; text-rendering:geometricPrecision; image-rendering:optimizeQuality; fill-rule:evenodd; clip-rule:evenodd"
viewBox="0 0 4.748 4.8"
 xmlns:xlink="http://www.w3.org/1999/xlink">
 <defs>
  <style type="text/css">
   <![CDATA[
    .fil0 {fill:green}
   ]]>
  </style>
 </defs>
 <g id="Layer_x0020_1">
  <metadata id="CorelCorpID_0Corel-Layer"/>
  <g id="_2170677637104">
   <path class="fil0" d="M2.664 4.1l0.554 -1.482 0.873 0c-0.307,0.458 -0.668,0.72 -1.023,1.104 -0.093,0.101 -0.273,0.322 -0.341,0.424l-0.063 -0.046zm-0.864 -1.482l1.146 0c-0.129,0.555 -0.413,1.068 -0.546,1.637 -0.007,-0.011 -0.017,-0.043 -0.02,-0.035 -0.002,0.008 -0.015,-0.027 -0.019,-0.035 -0.007,-0.014 -0.049,-0.112 -0.05,-0.114l-0.218 -0.6c-0.09,-0.272 -0.186,-0.63 -0.293,-0.853zm-1.145 0l0.872 0 0.491 1.419c-0.241,-0.162 -0.476,-0.451 -0.696,-0.668l-0.667 -0.751zm3 -0.872c0.162,0.108 0.395,0.418 0.491,0.6l-0.764 0c0.064,-0.274 0.202,-0.298 0.273,-0.6zm-1.309 0c0.198,0.132 0.375,0.382 0.491,0.6l-0.928 0c0.126,-0.239 0.291,-0.383 0.437,-0.6zm-1.255 0c0.058,0.215 0.21,0.33 0.273,0.6l-0.764 0c0.095,-0.141 0.365,-0.516 0.491,-0.6zm1.582 -0.11l0.764 0c-0.064,0.275 -0.203,0.298 -0.273,0.601l-0.109 0c-0.063,-0.237 -0.186,-0.227 -0.382,-0.601zm-1.364 0l0.818 0 -0.491 0.601c-0.136,-0.205 -0.21,-0.38 -0.327,-0.601zm-1.091 0.873l2.182 2.291 2.182 -2.291c-0.096,-0.181 -0.072,-0.135 -0.201,-0.29 -0.09,-0.109 -0.157,-0.209 -0.235,-0.31 -0.128,-0.168 -0.378,-0.545 -0.546,-0.545l-2.454 0c-0.214,0 -0.885,0.986 -0.928,1.145z"/>
   <path class="fil0" d="M2.237 0.164c0,0.681 -0.057,0.709 0.218,0.709 0.072,-0.129 0.131,-0.873 -0.055,-0.873l-0.109 0c-0.037,0.067 -0.054,0.058 -0.054,0.164z"/>
   <path class="fil0" d="M0.6 1.2c0.522,0 -0.262,-0.541 -0.339,-0.589 -0.143,-0.09 -0.023,-0.06 -0.261,-0.066l0.056 0.217c0.009,0.013 0.145,0.124 0.177,0.15 0.048,0.038 0.363,0.288 0.367,0.288z"/>
   <path class="fil0" d="M3.982 1.146c0.154,0.128 0.296,-0.033 0.504,-0.205 0.32,-0.265 0.254,-0.137 0.26,-0.396 -0.304,0.007 -0.236,0.067 -0.437,0.218 -0.139,0.106 -0.275,0.188 -0.327,0.383z"/>
  </g>
 </g>
</svg>
