<?xml version="1.0" encoding="UTF-8"?>
<!DOCTYPE svg PUBLIC "-//W3C//DTD SVG 1.1//EN" "http://www.w3.org/Graphics/SVG/1.1/DTD/svg11.dtd">
<!-- Creator: CorelDRAW 2017 -->
<svg xmlns="http://www.w3.org/2000/svg" xml:space="preserve" width="54px" height="50px" version="1.1" style="shape-rendering:geometricPrecision; text-rendering:geometricPrecision; image-rendering:optimizeQuality; fill-rule:evenodd; clip-rule:evenodd"
viewBox="0 0 10.13 9.458"
 xmlns:xlink="http://www.w3.org/1999/xlink">
 <defs>
  <style type="text/css">
   <![CDATA[
    .fil0 {fill:green}
   ]]>
  </style>
 </defs>
 <g id="Layer_x0020_1">
  <metadata id="CorelCorpID_0Corel-Layer"/>
  <g id="_2170675440576">
   <path class="fil0" d="M1.381 9.458c0.939,-0.078 0.61,-1.286 2.725,-2.455 2.793,-1.543 3.745,-0.009 3.837,-1.113 -0.605,-0.34 -2.647,-0.016 -3.454,0.345 -0.854,0.382 -1.275,0.831 -1.611,0.921 0,-3.861 5.311,-3.018 6.561,-1.151 -0.349,0.66 -0.964,1.337 -1.586,1.752 -1.188,0.793 -2.19,1.116 -3.66,0.731 -0.87,-0.228 -0.845,-0.445 -1.315,-0.181 0.107,0.4 0.368,0.456 0.788,0.593 2.683,0.876 5.236,-0.69 6.464,-3.01 -2.483,-2.857 -7.809,-2.832 -7.803,1.487 0,0.506 0.181,0.04 -0.059,0.447 -0.295,0.501 -0.866,0.717 -0.887,1.634z"/>
   <path class="fil0" d="M0 3.357c0,2.968 1.496,1.975 1.496,3.569l0 0.69 0.461 0c0.155,-0.666 0.053,-1.054 -0.113,-1.729 -0.301,-1.226 -0.504,-1.619 -0.158,-2.803 0.094,-0.321 0.361,-0.698 0.155,-0.904 -0.672,-0.673 -0.805,1.733 -0.805,2.328 0,0.397 0.085,0.446 0.115,0.806 -1.266,-0.927 -0.529,-3.788 0.691,-4.604 0.848,0.621 1.528,2.643 0.594,3.818 -0.095,0.121 -0.995,0.915 -0.167,0.871 0.156,-0.009 2.392,-1.662 0.216,-4.757 -0.497,-0.707 -0.67,-1.241 -1.833,0.719 -0.343,0.578 -0.652,1.132 -0.652,1.996z"/>
  </g>
 </g>
</svg>
