<?xml version="1.0" encoding="UTF-8"?>
<!DOCTYPE svg PUBLIC "-//W3C//DTD SVG 1.1//EN" "http://www.w3.org/Graphics/SVG/1.1/DTD/svg11.dtd">
<!-- Creator: CorelDRAW 2017 -->
<svg xmlns="http://www.w3.org/2000/svg" xml:space="preserve" width="22px" height="225px" version="1.1" style="shape-rendering:geometricPrecision; text-rendering:geometricPrecision; image-rendering:optimizeQuality; fill-rule:evenodd; clip-rule:evenodd"
viewBox="0 0 0.659 6.822"
 xmlns:xlink="http://www.w3.org/1999/xlink">
 <defs>
  <style type="text/css">
   <![CDATA[
    .fil0 {fill:#00A859;fill-rule:nonzero}
   ]]>
  </style>
 </defs>
 <g id="Layer_x0020_1">
  <metadata id="CorelCorpID_0Corel-Layer"/>
  <g>
   <path class="fil0" d="M0.254 0.309l-0.059 -0.015 0.015 -0.057 0.031 -0.118 0.034 -0.119 0.058 0.017 -0.033 0.118 -0.032 0.117 -0.014 0.057zm-0.08 0.353l-0.06 -0.012 0.012 -0.06 0.06 0.013 -0.012 0.059zm-0.043 0.238l-0.06 -0.01 0.01 -0.06 0.06 0.01 -0.01 0.06zm-0.065 0.6l-0.06 -0.004 0.002 -0.04 0.007 -0.105 0.009 -0.106 0.006 -0.053 0.06 0.007 -0.005 0.052 -0.009 0.105 -0.008 0.104 -0.002 0.04zm-0.004 0.362l-0.061 0 -0.001 -0.061 0.061 0 0.001 0.061zm0.013 0.24l-0.06 0.004 -0.004 -0.043 -0.001 -0.018 0.061 -0.003 0.001 0.016 0.003 0.044zm0.098 0.593l-0.059 0.014 -0.019 -0.081 -0.02 -0.092 -0.017 -0.092 -0.006 -0.035 0.06 -0.009 0.006 0.034 0.017 0.091 0.019 0.089 0.019 0.081zm0.107 0.344l-0.057 0.02 -0.02 -0.057 0.057 -0.02 0.02 0.057zm0.07 0.172l-0.057 0.022 0.001 0.001 -0.002 -0.005 0.056 -0.022 0.001 0.003 0.001 0.001zm-0.001 -0.001l0.001 0.001 0 0 -0.001 -0.001zm0.02 0.054l-0.056 0.022 -0.02 -0.053 0.057 -0.022 0.019 0.053zm0.173 0.585l-0.059 0.014 -0.006 -0.027 -0.025 -0.103 -0.027 -0.101 -0.018 -0.06 0.058 -0.018 0.018 0.062 0.028 0.102 0.025 0.104 0.006 0.027zm0.067 0.36l-0.06 0.01 -0.009 -0.06 0.06 -0.01 0.009 0.06zm0.029 0.243l-0.061 0.007 -0.006 -0.061 0.06 -0.007 0.007 0.061zm0.019 0.61l-0.061 -0.001 0.002 -0.061 0 -0.109 -0.001 -0.108 -0.001 -0.024 0.06 -0.003 0.001 0.025 0.002 0.11 -0.001 0.11 -0.001 0.061zm-0.022 0.365l-0.061 -0.005 0.006 -0.06 0.06 0.004 -0.005 0.061zm-0.028 0.242l-0.06 -0.007 0.007 -0.06 0.061 0.007 -0.008 0.06zm-0.112 0.599l-0.059 -0.013 0.003 -0.012 0.026 -0.116 0.024 -0.116 0.009 -0.051 0.06 0.01 -0.01 0.053 -0.024 0.116 -0.026 0.118 -0.003 0.011zm-0.093 0.354l-0.058 -0.017 0.003 -0.009 0.013 -0.049 0.059 0.016 -0.014 0.049 -0.003 0.01zm-0.104 0.155l0.058 -0.017 -0.049 -0.015 0.219 -0.183 0.039 0.046 -0.219 0.184 -0.048 -0.015zm0 0l0.048 0.015 -0.035 0.03 -0.013 -0.045zm-0.05 -0.283l0.03 -0.008 0.078 0.274 -0.058 0.017 -0.079 -0.275 0.029 -0.008z"/>
  </g>
 </g>
</svg>
