<?xml version="1.0" encoding="UTF-8"?>
<!DOCTYPE svg PUBLIC "-//W3C//DTD SVG 1.1//EN" "http://www.w3.org/Graphics/SVG/1.1/DTD/svg11.dtd">
<!-- Creator: CorelDRAW 2017 -->
<svg xmlns="http://www.w3.org/2000/svg" xml:space="preserve" width="1245px" height="72px" version="1.1" style="shape-rendering:geometricPrecision; text-rendering:geometricPrecision; image-rendering:optimizeQuality; fill-rule:evenodd; clip-rule:evenodd"
viewBox="0 0 1256.096 72.423"
 xmlns:xlink="http://www.w3.org/1999/xlink">
 <defs>
  <style type="text/css">
   <![CDATA[
    .fil0 {fill:#00A859;fill-rule:nonzero}
   ]]>
  </style>
 </defs>
 <g id="Layer_x0020_1">
  <metadata id="CorelCorpID_0Corel-Layer"/>
  <g>
   <path class="fil0" d="M1254.654 35.493l0.323 1.661 -6.827 6.587 -1.401 -1.452 6.827 -6.586 0.323 1.661 0.755 -1.871zm0 0l1.442 0.581 -1.119 1.08 -0.323 -1.661zm-9.178 -2.612l0.377 -0.936 8.801 3.548 -0.755 1.871 -8.8 -3.548 0.377 -0.935zm-2.453 6.715l-0.386 -1.98 9.91 -1.879 0.386 1.98 -9.91 1.879zm-11.893 2.255l-0.386 -1.98 1.983 -0.376 0.386 1.98 -1.983 0.376zm-7.952 1.428l-0.366 -1.984 1.986 -0.356 0.365 1.984 -1.985 0.356zm-19.878 3.501l-0.346 -1.988 5.616 -0.946 4.313 -0.773 0.366 1.984 -4.333 0.777 -5.616 0.946zm-11.936 2.011l-0.346 -1.988 1.99 -0.335 0.345 1.987 -1.989 0.336zm-7.974 1.301l-0.325 -1.991 1.992 -0.314 0.325 1.991 -1.992 0.314zm-19.943 3.118l-0.304 -1.995 2.321 -0.34 7.637 -1.203 0.324 1.991 -7.657 1.207 -2.321 0.34zm-11.977 1.755l-0.303 -1.995 1.996 -0.292 0.303 1.994 -1.996 0.293zm-7.997 1.16l-0.281 -1.997 1.046 -0.142 0.941 -0.138 0.303 1.995 -0.962 0.141 -1.047 0.141zm-20.002 2.705l-0.26 -2.001 0.019 -0.002 9.966 -1.348 0.281 1.998 -9.988 1.351 -0.018 0.002zm-12.013 1.485l-0.26 -2.001 2.003 -0.247 0.259 2.001 -2.002 0.247zm-8.009 0.991l-0.259 -2.001 2.002 -0.248 0.259 2.001 -2.002 0.248zm-20.059 2.253l-0.236 -2.004 10.024 -1.121 0.236 2.003 -10.024 1.122zm-12.054 1.219l-0.213 -2.006 2.007 -0.2 0.213 2.005 -2.007 0.201zm-8.03 0.801l-0.213 -2.006 2.007 -0.2 0.213 2.006 -2.007 0.2zm-20.108 1.779l-0.188 -2.008 10.048 -0.879 0.188 2.008 -10.048 0.879zm-12.081 0.927l-0.164 -2.011 2.012 -0.15 0.163 2.01 -2.011 0.151zm-8.047 0.603l-0.163 -2.011 2.011 -0.151 0.164 2.011 -2.012 0.151zm-20.147 1.27l-0.138 -2.013 10.068 -0.625 0.138 2.013 -10.068 0.625zm-12.102 0.605l-0.112 -2.014 2.015 -0.098 0.112 2.014 -2.015 0.098zm-8.06 0.395l-0.112 -2.014 2.015 -0.099 0.112 2.014 -2.015 0.099zm-20.188 0.716l-0.058 -2.017 0.491 -0.011 9.576 -0.34 0.085 2.016 -9.603 0.341 -0.491 0.011zm-12.101 0.263l-0.058 -2.017 2.016 -0.044 0.058 2.017 -2.016 0.044zm-8.083 0.153l-0.03 -2.017 1.6 -0.012 0.404 -0.009 0.058 2.016 -0.432 0.01 -1.6 0.012zm-20.188 0.113l0 -2.017 2.928 0.019 7.144 -0.055 0.03 2.018 -7.173 0.055 -2.929 -0.02zm-12.103 -0.08l-0.001 -2.018 2.017 0.014 0.001 2.017 -2.017 -0.013zm-8.083 -0.121l0.028 -2.017 2.016 0.043 -0.028 2.017 -2.016 -0.043zm-20.182 -0.526l0.058 -2.017 6.233 0.227 3.834 0.083 -0.028 2.017 -3.865 -0.083 -6.232 -0.227zm-12.112 -0.445l0.089 -2.015 0.138 0.007 1.863 0.068 -0.058 2.017 -1.895 -0.07 -0.137 -0.007zm-8.058 -0.418l0.089 -2.015 2.015 0.104 -0.09 2.015 -2.014 -0.104zm-20.153 -1.212l0.12 -2.013 10.064 0.682 -0.12 2.013 -10.064 -0.682zm-12.087 -0.895l0.153 -2.012 2.01 0.169 -0.153 2.012 -2.01 -0.169zm-8.041 -0.676l0.153 -2.011 2.01 0.169 -0.153 2.011 -2.01 -0.169zm-20.096 -1.942l0.185 -2.009 10.036 1.01 -0.185 2.009 -10.036 -1.01zm-12.042 -1.382l0.219 -2.005 2.003 0.236 -0.219 2.005 -2.003 -0.236zm-8.03 -0.96l0.253 -2.002 0.87 0.118 1.115 0.131 -0.219 2.005 -1.149 -0.135 -0.87 -0.117zm-19.999 -2.775l0.287 -1.997 3.966 0.607 6.003 0.812 -0.253 2.002 -6.038 -0.817 -3.965 -0.607zm-11.965 -1.832l0.288 -1.997 1.994 0.306 -0.288 1.996 -1.994 -0.305zm-7.973 -1.354l0.323 -1.991 1.988 0.341 -0.323 1.991 -1.988 -0.341zm-19.866 -3.609l0.359 -1.985 9.909 1.887 -0.36 1.985 -9.908 -1.887zm-11.886 -2.385l0.396 -1.979 1.974 0.415 -0.395 1.978 -1.975 -0.414zm-7.897 -1.658l0.395 -1.978 1.975 0.414 -0.396 1.979 -1.974 -0.415zm-19.698 -4.531l0.471 -1.962 1.992 0.499 7.811 1.796 -0.433 1.97 -7.849 -1.804 -1.992 -0.499zm-11.742 -2.94l0.472 -1.962 1.957 0.49 -0.471 1.962 -1.958 -0.49zm-7.816 -2.083l0.51 -1.952 1.947 0.529 -0.51 1.952 -1.947 -0.529zm-19.54 -4.943l0.479 -1.959 9.818 2.315 -0.479 1.959 -9.818 -2.315zm-11.778 -2.72l0.448 -1.967 1.971 0.432 -0.448 1.967 -1.971 -0.432zm-7.882 -1.726l0.448 -1.968 1.97 0.432 -0.447 1.967 -1.971 -0.431zm-19.732 -4.121l0.416 -1.974 9.886 2.003 -0.416 1.974 -9.886 -2.003zm-11.864 -2.316l0.385 -1.98 1.983 0.369 -0.385 1.98 -1.983 -0.369zm-7.933 -1.479l0.386 -1.98 1.983 0.37 -0.385 1.98 -1.984 -0.37zm-19.856 -3.472l0.354 -1.986 9.944 1.694 -0.355 1.986 -9.943 -1.694zm-11.935 -1.919l0.323 -1.992 1.994 0.308 -0.324 1.992 -1.993 -0.308zm-7.975 -1.233l0.323 -1.991 1.994 0.308 -0.323 1.991 -1.994 -0.308zm-19.958 -2.834l0.293 -1.996 9.991 1.388 -0.293 1.996 -9.991 -1.388zm-11.992 -1.53l0.263 -2.001 2.002 0.247 -0.262 2.001 -2.003 -0.247zm-8.008 -0.989l0.262 -2 2.002 0.247 -0.262 2 -2.002 -0.247zm-20.037 -2.208l0.232 -2.004 10.028 1.085 -0.232 2.003 -10.028 -1.084zm-12.034 -1.152l0.202 -2.008 2.008 0.187 -0.202 2.008 -2.008 -0.187zm-8.035 -0.748l0.202 -2.008 2.009 0.187 -0.202 2.008 -2.009 -0.187zm-20.096 -1.597l0.173 -2.01 10.056 0.786 -0.173 2.01 -10.056 -0.786zm-12.063 -0.786l0.142 -2.012 2.014 0.128 -0.143 2.012 -2.013 -0.128zm-8.054 -0.511l0.143 -2.012 2.013 0.127 -0.142 2.012 -2.014 -0.127zm-20.134 -1.002l0.114 -2.014 10.074 0.494 -0.113 2.014 -10.075 -0.494zm-12.082 -0.431l0.084 -2.016 2.016 0.07 -0.084 2.016 -2.016 -0.07zm-8.065 -0.279l0.084 -2.016 2.017 0.07 -0.084 2.015 -2.017 -0.069zm-20.155 -0.424l0.056 -2.016 10.085 0.205 -0.056 2.017 -10.085 -0.206zm-12.089 -0.09l0.026 -2.018 2.018 0.013 -0.027 2.018 -2.017 -0.013zm-8.07 -0.052l0.027 -2.017 2.017 0.013 -0.026 2.017 -2.018 -0.013zm-20.159 0.135l-0.001 -2.018 10.087 -0.075 0 2.017 -10.086 0.076zm-12.088 0.236l-0.029 -2.017 2.017 -0.043 0.029 2.018 -2.017 0.042zm-8.068 0.171l-0.029 -2.018 2.017 -0.042 0.029 2.017 -2.017 0.043zm-20.149 0.674l-0.056 -2.017 10.081 -0.349 0.056 2.017 -10.081 0.349zm-12.078 0.549l-0.083 -2.015 2.015 -0.097 0.083 2.016 -2.015 0.096zm-8.06 0.388l-0.083 -2.016 2.015 -0.097 0.083 2.016 -2.015 0.097zm-20.125 1.193l-0.11 -2.014 10.068 -0.617 0.11 2.014 -10.068 0.617zm-12.061 0.847l-0.136 -2.013 2.011 -0.15 0.137 2.013 -2.012 0.15zm-8.047 0.598l-0.137 -2.013 2.012 -0.149 0.137 2.013 -2.012 0.149zm-20.09 1.692l-0.163 -2.01 10.049 -0.877 0.163 2.01 -10.049 0.877zm-12.038 1.13l-0.188 -2.008 2.007 -0.201 0.188 2.008 -2.007 0.201zm-8.029 0.804l-0.189 -2.008 2.007 -0.201 0.189 2.008 -2.007 0.201zm-20.044 2.17l-0.214 -2.006 10.024 -1.13 0.213 2.006 -10.023 1.13zm-12.011 1.398l-0.238 -2.003 2.001 -0.25 0.239 2.003 -2.002 0.25zm-8.007 1.003l-0.238 -2.003 2.001 -0.251 0.239 2.003 -2.002 0.251zm-19.989 2.627l-0.263 -2 9.979 -1.373 0.026 -0.003 0.238 2.002 -0.001 0.001 -9.979 1.373zm-11.979 1.653l-0.287 -1.997 0.301 -0.045 1.709 -0.235 0.263 1.999 -1.685 0.233 -0.301 0.045zm-7.98 1.195l-0.287 -1.997 1.995 -0.299 0.287 1.997 -1.995 0.299zm-19.928 3.064l-0.311 -1.993 6.432 -1.041 3.544 -0.532 0.287 1.997 -3.52 0.528 -6.432 1.041zm-11.948 1.935l-0.311 -1.993 1.991 -0.322 0.311 1.993 -1.991 0.322zm-7.946 1.34l-0.334 -1.989 1.987 -0.346 0.334 1.989 -1.987 0.346zm-19.86 3.481l-0.356 -1.985 2.272 -0.422 7.672 -1.335 0.334 1.989 -7.65 1.331 -2.272 0.422zm-11.9 2.21l-0.357 -1.985 1.983 -0.368 0.357 1.985 -1.983 0.368zm-7.934 1.474l-0.357 -1.985 1.983 -0.368 0.357 1.985 -1.983 0.368zm-19.78 3.906l-0.38 -1.981 9.896 -1.955 0.379 1.982 -9.895 1.954z"/>
  </g>
 </g>
</svg>
