<?xml version="1.0" encoding="UTF-8"?>
<!DOCTYPE svg PUBLIC "-//W3C//DTD SVG 1.1//EN" "http://www.w3.org/Graphics/SVG/1.1/DTD/svg11.dtd">
<!-- Creator: CorelDRAW 2017 -->
<svg xmlns="http://www.w3.org/2000/svg" xml:space="preserve" width="25px" height="207px" version="1.1" style="shape-rendering:geometricPrecision; text-rendering:geometricPrecision; image-rendering:optimizeQuality; fill-rule:evenodd; clip-rule:evenodd"
viewBox="0 0 0.864 7.164"
 xmlns:xlink="http://www.w3.org/1999/xlink">
 <defs>
  <style type="text/css">
   <![CDATA[
    .fil0 {fill:#00A859;fill-rule:nonzero}
   ]]>
  </style>
 </defs>
 <g id="Layer_x0020_1">
  <metadata id="CorelCorpID_0Corel-Layer"/>
  <g>
   <path class="fil0" d="M0.413 0.052l0.054 -0.02 0.262 0.194 -0.042 0.056 -0.261 -0.195 0.054 -0.02 -0.067 -0.015zm0 0l0.011 -0.052 0.043 0.032 -0.054 0.02zm-0.037 0.326l-0.034 -0.008 0.071 -0.318 0.067 0.015 -0.07 0.318 -0.034 -0.007zm0.235 0.048l-0.066 0.022 -0.025 -0.08 -0.042 -0.122 -0.045 -0.124 0.065 -0.024 0.045 0.125 0.042 0.123 0.026 0.08zm0.114 0.402l-0.067 0.018 -0.017 -0.067 0.067 -0.018 0.017 0.067zm0.059 0.273l-0.068 0.013 -0.007 -0.037 -0.006 -0.03 0.067 -0.015 0.007 0.031 0.007 0.038zm0.08 0.692l-0.069 0.004 -0.002 -0.057 -0.007 -0.108 -0.01 -0.108 -0.007 -0.07 0.068 -0.008 0.008 0.071 0.01 0.11 0.007 0.11 0.002 0.056zm-0.009 0.419l-0.069 -0.004 0.004 -0.051 0.001 -0.017 0.069 0.002 -0.001 0.02 -0.004 0.05zm-0.034 0.278l-0.068 -0.01 0.004 -0.023 0.006 -0.045 0.069 0.009 -0.007 0.047 -0.004 0.022zm-0.188 0.673l-0.065 -0.025 0.01 -0.024 0.034 -0.09 0.032 -0.091 0.028 -0.093 0.007 -0.026 0.067 0.018 -0.007 0.027 -0.029 0.095 -0.032 0.094 -0.035 0.092 -0.01 0.023zm-0.16 0.332l-0.062 -0.03 0.001 -0.002 0.009 -0.016 0.061 0.032 -0.01 0.018 0.001 -0.002zm-0.062 -0.03l0 -0.001 0.001 -0.001 -0.001 0.002zm0.041 0.075l-0.062 -0.03 0.021 -0.045 0.062 0.03 -0.021 0.045zm-0.109 0.253l-0.064 -0.027 0.026 -0.065 0.064 0.027 -0.026 0.065zm-0.195 0.657l-0.067 -0.016 0.023 -0.108 0.028 -0.11 0.03 -0.11 0.004 -0.01 0.065 0.021 -0.002 0.009 -0.03 0.107 -0.027 0.108 -0.024 0.109zm-0.061 0.407l-0.069 -0.008 0.007 -0.069 0.069 0.008 -0.007 0.069zm-0.018 0.273l-0.069 -0.002 0 -0.014 0.003 -0.056 0.069 0.004 -0.003 0.055 0 0.013zm0.034 0.686l-0.069 0.008 -0.001 -0.008 -0.013 -0.118 -0.01 -0.118 -0.007 -0.103 0.07 -0.003 0.006 0.101 0.01 0.116 0.013 0.117 0.001 0.008zm0.069 0.407l-0.068 0.013 -0.013 -0.06 -0.001 -0.008 0.068 -0.012 0.001 0.007 0.013 0.06zm0.064 0.268l-0.067 0.016 -0.017 -0.067 0.067 -0.016 0.017 0.067zm0.213 0.648l-0.064 0.025 -0.048 -0.126 -0.044 -0.125 -0.024 -0.072 0.066 -0.021 0.023 0.071 0.044 0.124 0.047 0.124z"/>
  </g>
 </g>
</svg>
