<?xml version="1.0" encoding="UTF-8"?>
<!DOCTYPE svg PUBLIC "-//W3C//DTD SVG 1.1//EN" "http://www.w3.org/Graphics/SVG/1.1/DTD/svg11.dtd">
<!-- Creator: CorelDRAW 2017 -->
<svg xmlns="http://www.w3.org/2000/svg" xml:space="preserve" width="60px" height="54px" version="1.1" style="shape-rendering:geometricPrecision; text-rendering:geometricPrecision; image-rendering:optimizeQuality; fill-rule:evenodd; clip-rule:evenodd"
viewBox="0 0 6.188 5.5"
 xmlns:xlink="http://www.w3.org/1999/xlink">
 <defs>
  <style type="text/css">
   <![CDATA[
    .fil0 {fill:green}
   ]]>
  </style>
 </defs>
 <g id="Layer_x0020_1">
  <metadata id="CorelCorpID_0Corel-Layer"/>
  <g id="_2170673442864">
   <path class="fil0" d="M1.875 2.813c0,-0.314 0.056,-0.28 0.063,-0.563 0.212,0.05 0.341,0.159 0.535,0.277 0.191,0.117 0.331,0.187 0.515,0.298 0.351,0.211 0.726,0.428 1.075,0.613 -0.666,0.994 -2.188,0.373 -2.188,-0.625zm-1.875 -1.875l0 -0.021c0,-0.01 0,-0.023 0,-0.042 0.258,0.006 0.281,0.063 0.461,0.164l5.114 2.949c0.441,0.265 0.605,0.215 0.613,0.575 -0.543,-0.012 -1.393,-0.892 -1.938,-0.938 -0.055,0.207 -0.107,0.229 -0.448,0.427 -0.59,0.342 -1.244,0.196 -1.703,-0.213l-0.331 -0.419c-0.195,-0.378 -0.2,-0.978 -0.018,-1.357 -0.289,-0.068 -0.69,-0.364 -0.978,-0.522 -0.357,-0.195 -0.685,-0.317 -0.76,-0.553 -0.009,-0.027 -0.011,-0.038 -0.012,-0.05z"/>
   <path class="fil0" d="M2.063 1.75c0.393,0.189 0.328,-0.25 1.062,-0.25 0.628,0 1.127,0.519 1.18,1.071 0.041,0.441 -0.132,0.463 0.258,0.554 0.011,-0.478 0.167,-1.184 -0.728,-1.71 -0.308,-0.181 -0.622,-0.219 -0.96,-0.17 -0.365,0.053 -0.725,0.178 -0.812,0.505z"/>
   <path class="fil0" d="M4.813 2.813c0.214,0.12 0.564,0.062 0.812,0.062 0.168,0 0.185,-0.09 0.25,-0.187 -0.265,-0.178 -0.133,-0.125 -0.75,-0.125 -0.235,0 -0.293,0.023 -0.312,0.25z"/>
   <path class="fil0" d="M2.938 0.188c0,0.78 -0.065,0.812 0.25,0.812 0.083,-0.148 0.15,-1 -0.063,-1l-0.125 0c-0.043,0.076 -0.062,0.067 -0.062,0.188z"/>
   <path class="fil0" d="M0.375 2.688l0 0.125c0.148,0.083 1,0.15 1,-0.063l0 -0.125c-0.148,-0.083 -1,-0.15 -1,0.063z"/>
   <path class="fil0" d="M2.938 4.75c0,0.618 -0.058,0.586 0.187,0.75 0.191,-0.284 0.125,-0.202 0.125,-0.875 0,-0.239 0.019,-0.022 -0.062,-0.187 -0.219,0.024 -0.097,-0.039 -0.187,0.063 -0.059,0.066 -0.063,0.12 -0.063,0.249z"/>
   <path class="fil0" d="M1.688 0.438c0,0.2 0.361,0.812 0.437,0.812 0.41,0 -0.031,-0.608 -0.157,-0.78 -0.127,-0.174 -0.03,-0.107 -0.218,-0.157 -0.001,0.001 -0.062,0.116 -0.062,0.125z"/>
   <path class="fil0" d="M4.375 5.125c0.328,0 0.107,-0.309 0.022,-0.458 -0.072,-0.126 -0.083,-0.13 -0.143,-0.233 -0.288,-0.49 -0.484,-0.262 -0.213,0.212 0.081,0.141 0.253,0.479 0.334,0.479z"/>
   <path class="fil0" d="M4 1.25c0.22,0 0.464,-0.625 0.563,-0.812l-0.18 -0.135c-0.154,0.116 -0.696,0.947 -0.383,0.947z"/>
   <path class="fil0" d="M1.688 4.938l0 0.187c0.164,-0.013 0.155,0.083 0.374,-0.313 0.04,-0.073 0.058,-0.122 0.105,-0.207 0.212,-0.389 0.213,-0.156 0.083,-0.417 -0.353,0.094 -0.562,0.736 -0.562,0.75z"/>
   <path class="fil0" d="M4.563 1.875c0.175,0.146 0.554,-0.118 0.78,-0.282 0.174,-0.126 0.108,-0.031 0.157,-0.218 -0.295,-0.166 -0.868,0.241 -0.937,0.5z"/>
   <path class="fil0" d="M0.688 4c0.164,0.293 0.248,0.14 0.691,-0.121 0.494,-0.29 0.25,-0.494 -0.204,-0.204 -0.105,0.067 -0.137,0.082 -0.238,0.137 -0.041,0.022 -0.078,0.038 -0.12,0.068 -0.011,0.007 -0.025,0.02 -0.035,0.028 -0.009,0.007 -0.024,0.022 -0.033,0.029l-0.061 0.063z"/>
  </g>
 </g>
</svg>
