<?xml version="1.0" encoding="UTF-8"?>
<!DOCTYPE svg PUBLIC "-//W3C//DTD SVG 1.1//EN" "http://www.w3.org/Graphics/SVG/1.1/DTD/svg11.dtd">
<!-- Creator: CorelDRAW 2017 -->
<svg xmlns="http://www.w3.org/2000/svg" xml:space="preserve" width="112px" height="127px" version="1.1" style="shape-rendering:geometricPrecision; text-rendering:geometricPrecision; image-rendering:optimizeQuality; fill-rule:evenodd; clip-rule:evenodd"
viewBox="0 0 21.417 24.144"
 xmlns:xlink="http://www.w3.org/1999/xlink">
 <defs>
  <style type="text/css">
   <![CDATA[
    .fil0 {fill:#009933;fill-rule:nonzero}
   ]]>
  </style>
 </defs>
 <g id="Layer_x0020_1">
  <metadata id="CorelCorpID_0Corel-Layer"/>
  <g>
   <path class="fil0" d="M0.472 0.905l-0.181 0.06 -0.017 -0.049 -0.274 -0.861 0.182 -0.055 0.273 0.855 0.017 0.05zm0.251 0.719l-0.18 0.06 -0.063 -0.18 0.18 -0.06 0.063 0.18zm0.554 1.414l-0.177 0.07 -0.204 -0.493 -0.151 -0.394 0.179 -0.065 0.149 0.388 0.204 0.494zm0.301 0.697l-0.175 0.075 -0.077 -0.174 0.174 -0.075 0.078 0.174zm0.649 1.372l-0.17 0.086 -0.044 -0.085 -0.373 -0.775 0.172 -0.08 0.372 0.77 0.043 0.084zm0.35 0.677l-0.17 0.085 -0.088 -0.169 0.171 -0.085 0.087 0.169zm0.746 1.323l-0.166 0.095 -0.275 -0.468 -0.199 -0.361 0.168 -0.09 0.197 0.357 0.275 0.467zm0.393 0.65l-0.163 0.099 -0.101 -0.162 0.163 -0.099 0.101 0.162zm0.826 1.274l-0.157 0.108 -0.015 -0.021 -0.513 -0.776 0.161 -0.103 0.51 0.771 0.014 0.021zm0.437 0.625l-0.157 0.107 -0.11 -0.156 0.158 -0.107 0.109 0.156zm0.907 1.219l-0.152 0.115 -0.248 -0.32 -0.327 -0.443 0.155 -0.111 0.323 0.439 0.249 0.32zm0.47 0.596l-0.149 0.119 -0.121 -0.147 0.149 -0.119 0.121 0.147zm0.976 1.167l-0.146 0.122 -0.486 -0.567 -0.132 -0.16 0.149 -0.119 0.129 0.157 0.486 0.567zm0.504 0.569l-0.143 0.125 -0.127 -0.141 0.143 -0.126 0.127 0.142zm1.035 1.112l-0.137 0.133 -0.029 -0.03 -0.626 -0.665 0.14 -0.129 0.624 0.662 0.028 0.029zm0.535 0.543l-0.137 0.132 -0.134 -0.135 0.137 -0.133 0.134 0.136zm1.091 1.058l-0.131 0.138 -0.2 -0.186 -0.489 -0.475 0.134 -0.135 0.486 0.472 0.2 0.186zm0.558 0.519l-0.131 0.138 -0.14 -0.13 0.131 -0.138 0.14 0.13zm1.14 1.005l-0.125 0.144 -0.345 -0.296 -0.373 -0.333 0.128 -0.141 0.37 0.331 0.345 0.295zm0.579 0.493l-0.122 0.145 -0.111 -0.091 -0.037 -0.032 0.125 -0.143 0.034 0.029 0.111 0.092zm1.183 0.958l-0.12 0.148 -0.455 -0.36 -0.289 -0.238 0.123 -0.145 0.286 0.235 0.455 0.36zm0.599 0.467l-0.117 0.151 -0.151 -0.115 0.116 -0.151 0.152 0.115zm1.219 0.913l-0.114 0.152 -0.523 -0.383 -0.244 -0.185 0.117 -0.151 0.241 0.184 0.523 0.383zm0.616 0.445l-0.111 0.154 -0.156 -0.109 0.111 -0.155 0.156 0.11zm1.251 0.868l-0.109 0.156 -0.541 -0.367 -0.245 -0.173 0.111 -0.155 0.243 0.171 0.541 0.368zm0.631 0.423l-0.106 0.159 -0.159 -0.104 0.106 -0.159 0.159 0.104zm1.279 0.827l-0.103 0.16 -0.504 -0.318 -0.3 -0.197 0.106 -0.158 0.297 0.194 0.504 0.319zm0.644 0.404l-0.101 0.162 -0.137 -0.084 -0.026 -0.017 0.103 -0.16 0.024 0.015 0.137 0.084zm0.898 0.548l-0.098 0.163 -0.413 -0.252 0.101 -0.162 0.41 0.251zm0.126 0.311l-0.009 -0.255 -0.111 0.184 -0.529 -1.081 0.23 -0.113 0.529 1.081 -0.11 0.184zm0 0l0.11 -0.184 0.087 0.177 -0.197 0.007zm-1.208 -0.085l-0.005 -0.128 1.204 -0.042 0.009 0.255 -1.204 0.043 -0.004 -0.128z"/>
  </g>
 </g>
</svg>
