<?xml version="1.0" encoding="UTF-8"?>
<!DOCTYPE svg PUBLIC "-//W3C//DTD SVG 1.1//EN" "http://www.w3.org/Graphics/SVG/1.1/DTD/svg11.dtd">
<!-- Creator: CorelDRAW 2017 -->
<svg xmlns="http://www.w3.org/2000/svg" xml:space="preserve" width="22px" height="130px" version="1.1" style="shape-rendering:geometricPrecision; text-rendering:geometricPrecision; image-rendering:optimizeQuality; fill-rule:evenodd; clip-rule:evenodd"
viewBox="0 0 0.754 4.52"
 xmlns:xlink="http://www.w3.org/1999/xlink">
 <defs>
  <style type="text/css">
   <![CDATA[
    .fil0 {fill:#009933;fill-rule:nonzero}
   ]]>
  </style>
 </defs>
 <g id="Layer_x0020_1">
  <metadata id="CorelCorpID_0Corel-Layer"/>
  <g>
   <path class="fil0" d="M0.056 4.503l-0.035 -0.018 -0.021 -0.218 0.046 -0.005 0.022 0.218 -0.035 -0.018 0.023 0.041zm0 0l-0.031 0.017 -0.004 -0.035 0.035 0.018zm0.179 -0.129l0.011 0.02 -0.19 0.109 -0.023 -0.041 0.19 -0.108 0.012 0.02zm-0.111 -0.086l0.03 0.016 -0.077 0.154 -0.031 -0.016 0.078 -0.154zm0.059 -0.125l0.031 0.015 -0.015 0.031 -0.031 -0.015 0.015 -0.031zm0.112 -0.253l0.032 0.014 -0.028 0.066 -0.041 0.093 -0.032 -0.014 0.041 -0.093 0.028 -0.066zm0.053 -0.128l0.032 0.013 -0.013 0.032 -0.032 -0.013 0.013 -0.032zm0.096 -0.259l0.033 0.012 -0.054 0.149 -0.005 0.014 -0.033 -0.013 0.006 -0.013 0.053 -0.149zm0.044 -0.131l0.033 0.011 -0.011 0.033 -0.033 -0.011 0.011 -0.033zm0.077 -0.266l0.033 0.01 -0.026 0.097 -0.021 0.07 -0.033 -0.01 0.021 -0.07 0.026 -0.097zm0.034 -0.134l0.033 0.009 -0.008 0.034 -0.033 -0.009 0.008 -0.034zm0.055 -0.27l0.034 0.006 -0.011 0.064 -0.022 0.107 -0.034 -0.007 0.022 -0.106 0.011 -0.064zm0.022 -0.136l0.034 0.005 -0.004 0.034 -0.035 -0.005 0.005 -0.034zm0.031 -0.275l0.034 0.003 -0.003 0.048 -0.014 0.125 -0.034 -0.004 0.013 -0.124 0.004 -0.048zm0.009 -0.137l0.034 0.001 -0.001 0.035 -0.035 -0.002 0.002 -0.034zm0.002 -0.276l0.035 -0.001 0.001 0.045 0 0.129 -0.035 -0.001 0.001 -0.127 -0.002 -0.045zm-0.006 -0.138l0.035 -0.002 0.002 0.035 -0.034 0.001 -0.003 -0.034zm-0.027 -0.275l0.034 -0.004 0.008 0.052 0.012 0.121 -0.034 0.003 -0.013 -0.12 -0.007 -0.052zm-0.022 -0.136l0.035 -0.006 0.006 0.034 -0.035 0.006 -0.006 -0.034zm-0.058 -0.27l0.033 -0.008 0.016 0.063 0.024 0.107 -0.034 0.006 -0.023 -0.105 -0.016 -0.063zm-0.038 -0.133l0.034 -0.009 0.01 0.033 -0.034 0.01 -0.01 -0.034zm-0.089 -0.261l0.033 -0.011 0.027 0.071 0.031 0.092 -0.033 0.011 -0.031 -0.091 -0.027 -0.072zm-0.052 -0.127l0.032 -0.013 0.014 0.032 -0.032 0.013 -0.014 -0.032zm-0.118 -0.25l0.031 -0.015 0.038 0.074 0.039 0.082 -0.032 0.014 -0.038 -0.081 -0.038 -0.074zm-0.065 -0.121l0.03 -0.017 0.017 0.031 -0.031 0.016 -0.016 -0.03zm-0.1 -0.169l0.029 -0.018 0.049 0.08 -0.03 0.017 -0.048 -0.079z"/>
  </g>
 </g>
</svg>
