<?xml version="1.0" encoding="UTF-8"?>
<!DOCTYPE svg PUBLIC "-//W3C//DTD SVG 1.1//EN" "http://www.w3.org/Graphics/SVG/1.1/DTD/svg11.dtd">
<!-- Creator: CorelDRAW 2017 -->
<svg xmlns="http://www.w3.org/2000/svg" xml:space="preserve" width="89px" height="154px" version="1.1" style="shape-rendering:geometricPrecision; text-rendering:geometricPrecision; image-rendering:optimizeQuality; fill-rule:evenodd; clip-rule:evenodd"
viewBox="0 0 8.18 14.16"
 xmlns:xlink="http://www.w3.org/1999/xlink">
 <defs>
  <style type="text/css">
   <![CDATA[
    .fil0 {fill:#009933;fill-rule:nonzero}
   ]]>
  </style>
 </defs>
 <g id="Layer_x0020_1">
  <metadata id="CorelCorpID_0Corel-Layer"/>
  <g>
   <path class="fil0" d="M8.173 0.459l-0.092 0 0.007 -0.459 0.092 0 -0.007 0.459zm-0.011 0.368l-0.092 -0.002 0.004 -0.092 0.092 0.003 -0.004 0.091zm-0.04 0.735l-0.092 -0.005 0.025 -0.358 0.004 -0.099 0.092 0.002 -0.005 0.102 -0.024 0.358zm-0.029 0.367l-0.092 -0.007 0.009 -0.092 0.092 0.008 -0.009 0.091zm-0.079 0.731l-0.092 -0.01 0.038 -0.296 0.015 -0.158 0.091 0.007 -0.015 0.161 -0.037 0.296zm-0.049 0.366l-0.091 -0.013 0.014 -0.091 0.091 0.013 -0.014 0.091zm-0.122 0.725l-0.091 -0.015 0.051 -0.27 0.028 -0.181 0.091 0.013 -0.029 0.183 -0.05 0.27zm-0.071 0.362l-0.09 -0.018 0.019 -0.09 0 0.001 0.091 0.016 -0.001 0.002 -0.019 0.089zm-0.168 0.716l-0.09 -0.021 0.07 -0.274 0.038 -0.171 0.09 0.019 -0.038 0.173 -0.07 0.274zm-0.095 0.357l-0.089 -0.025 0.026 -0.088 0.088 0.024 -0.025 0.089zm-0.216 0.703l-0.088 -0.027 0.1 -0.304 0.038 -0.132 0.089 0.024 -0.04 0.135 -0.099 0.304zm-0.121 0.348l-0.087 -0.03 0.032 -0.086 0.087 0.03 -0.032 0.086zm-0.267 0.686l-0.085 -0.033 0.143 -0.351 0.027 -0.073 0.087 0.03 -0.028 0.076 -0.144 0.351zm-0.147 0.338l-0.084 -0.036 0.038 -0.083 0.084 0.036 -0.038 0.083zm-0.318 0.664l-0.083 -0.039 0.203 -0.41 0 0 0.085 0.037 -0.002 0.003 -0.203 0.409zm-0.174 0.325l-0.082 -0.042 0.044 -0.081 0.082 0.043 -0.044 0.08zm-0.372 0.638l-0.078 -0.049 0.025 -0.038 0.21 -0.354 0.08 0.045 -0.212 0.357 -0.025 0.039zm-0.199 0.308l-0.078 -0.048 0.05 -0.077 0.078 0.048 -0.05 0.077zm-0.424 0.604l-0.074 -0.054 0.087 -0.116 0.179 -0.256 0.076 0.051 -0.181 0.259 -0.087 0.116zm-0.223 0.293l-0.072 -0.056 0.007 -0.009 0.047 -0.063 0.075 0.054 -0.05 0.066 -0.007 0.008zm-0.473 0.564l-0.07 -0.059 0.161 -0.182 0.135 -0.166 0.072 0.057 -0.137 0.168 -0.161 0.182zm-0.247 0.274l-0.068 -0.062 0.063 -0.066 0.068 0.062 -0.063 0.066zm-0.516 0.525l-0.065 -0.064 0.239 -0.234 0.084 -0.089 0.068 0.062 -0.087 0.091 -0.239 0.234zm-0.269 0.253l-0.063 -0.067 0.068 -0.061 0.063 0.066 -0.068 0.062zm-0.554 0.484l-0.06 -0.069 0.315 -0.267 0.033 -0.029 0.063 0.066 -0.035 0.032 -0.316 0.267zm-0.287 0.231l-0.058 -0.071 0.072 -0.057 0.058 0.072 -0.072 0.056zm-0.588 0.443l-0.056 -0.073 0.37 -0.272 0.056 0.073 -0.37 0.272zm-0.304 0.209l-0.053 -0.074 0.076 -0.052 0.053 0.075 -0.076 0.051zm-0.616 0.402l-0.051 -0.077 0.387 -0.246 0.051 0.076 -0.387 0.247zm-0.317 0.189l-0.048 -0.079 0.079 -0.046 0.048 0.078 -0.079 0.047zm-0.641 0.361l-0.046 -0.08 0.402 -0.222 0.046 0.08 -0.402 0.222zm-0.19 -0.009l0.108 0.06 -0.049 -0.092 0.578 0.05 -0.01 0.123 -0.578 -0.05 -0.049 -0.091zm0 0l0.049 0.091 -0.095 -0.008 0.046 -0.083zm0.335 -0.478l0.054 0.03 -0.281 0.508 -0.108 -0.06 0.281 -0.508 0.054 0.03z"/>
  </g>
 </g>
</svg>
